<?xml version="1.0" encoding="utf-8"?>
<!-- Generator: Adobe Illustrator 21.0.0, SVG Export Plug-In . SVG Version: 6.00 Build 0)  -->
<svg version="1.1" id="Layer_1" xmlns="http://www.w3.org/2000/svg" xmlns:xlink="http://www.w3.org/1999/xlink" x="0px" y="0px"
	 viewBox="0 0 512 512" style="enable-background:new 0 0 512 512;" xml:space="preserve">
<style type="text/css">
	.st0{fill:none;stroke:url(#SVGID_1_);stroke-width:32;stroke-linecap:round;stroke-linejoin:round;}
	.st1{fill:none;stroke:url(#SVGID_2_);stroke-width:32;stroke-linecap:round;stroke-linejoin:round;}
</style>
<title>ionicons-v5-i</title>
<linearGradient id="SVGID_1_" gradientUnits="userSpaceOnUse" x1="178" y1="368" x2="368" y2="368">
	<stop  offset="0" style="stop-color:#FF449F"/>
	<stop  offset="1" style="stop-color:#D5085D"/>
</linearGradient>
<polyline class="st0" points="352,256 256,480 194,335 "/>
<linearGradient id="SVGID_2_" gradientUnits="userSpaceOnUse" x1="80" y1="184" x2="432" y2="184">
	<stop  offset="0" style="stop-color:#FF449F"/>
	<stop  offset="1" style="stop-color:#D5085D"/>
</linearGradient>
<path class="st1" d="M299.4,223.5c-7.7,16.3-24.2,28.5-43.4,28.5c-13.1,0-27-5-33.6-9.8c-6.1-4.4-14.4-2.2-14.4,7.8v62
	c0,13.2-10.8,24-24,24l0,0c-13.2,0-24-10.8-24-24v-56h-2c-35.3,0-62-28.6-62-64c0-35.3,28.7-64,64-64h8v-8c0-48.6,39.4-88,88-88
	s88,39.4,88,88v8h8c35.3,0,64,28.7,64,64s-28.7,64-64,64C330.2,256,310,243,299.4,223.5L299.4,223.5z"/>
</svg>
