<?xml version="1.0" encoding="utf-8"?>
<!-- Generator: Adobe Illustrator 21.0.0, SVG Export Plug-In . SVG Version: 6.00 Build 0)  -->
<svg version="1.1" id="Layer_1" xmlns="http://www.w3.org/2000/svg" xmlns:xlink="http://www.w3.org/1999/xlink" x="0px" y="0px"
	 viewBox="0 0 512 512" style="enable-background:new 0 0 512 512;" xml:space="preserve">
<style type="text/css">
	.st0{fill:none;stroke:url(#SVGID_1_);stroke-width:32;stroke-linecap:round;stroke-linejoin:round;}
	.st1{fill:url(#SVGID_2_);}
	.st2{fill:none;stroke:url(#SVGID_3_);stroke-width:32;stroke-linecap:round;stroke-linejoin:round;}
</style>
<title>ionicons-v5-p</title>
<linearGradient id="SVGID_1_" gradientUnits="userSpaceOnUse" x1="-6.747246e-05" y1="240.0004" x2="448.0003" y2="240.0004">
	<stop  offset="0" style="stop-color:#FF449F"/>
	<stop  offset="1" style="stop-color:#D5085D"/>
</linearGradient>
<path class="st0" d="M403.3,32H280.4c-3.8,0-7.5,1.5-10.2,4.2L24.4,281.9c-11.2,11.3-11.2,29.4,0,40.7l117,117
	c11.3,11.2,29.5,11.2,40.7,0L427.8,194c2.7-2.7,4.2-6.4,4.2-10.2v-123c0.1-15.8-12.7-28.7-28.5-28.8C403.4,32,403.4,32,403.3,32z"/>
<linearGradient id="SVGID_2_" gradientUnits="userSpaceOnUse" x1="320" y1="112" x2="384" y2="112">
	<stop  offset="0" style="stop-color:#FF449F"/>
	<stop  offset="1" style="stop-color:#D5085D"/>
</linearGradient>
<path class="st1" d="M352,144c-17.7,0-32-14.3-32-32s14.3-32,32-32s32,14.3,32,32S369.7,144,352,144z"/>
<linearGradient id="SVGID_3_" gradientUnits="userSpaceOnUse" x1="214" y1="280" x2="512.0028" y2="280">
	<stop  offset="0" style="stop-color:#FF449F"/>
	<stop  offset="1" style="stop-color:#D5085D"/>
</linearGradient>
<path class="st2" d="M230,480l262-262c2.6-2.7,4.1-6.3,4-10V80"/>
</svg>
