<?xml version="1.0" encoding="utf-8"?>
<!-- Generator: Adobe Illustrator 21.0.0, SVG Export Plug-In . SVG Version: 6.00 Build 0)  -->
<svg version="1.1" id="Layer_1" xmlns="http://www.w3.org/2000/svg" xmlns:xlink="http://www.w3.org/1999/xlink" x="0px" y="0px"
	 viewBox="0 0 512 512" style="enable-background:new 0 0 512 512;" xml:space="preserve">
<style type="text/css">
	.st0{fill:url(#SVGID_1_);}
	.st1{fill:url(#SVGID_2_);}
	.st2{fill:url(#SVGID_3_);}
	.st3{fill:url(#SVGID_4_);}
	.st4{fill:url(#SVGID_5_);}
	.st5{fill:url(#SVGID_6_);}
	.st6{fill:url(#SVGID_7_);}
</style>
<title>Commercial delivery</title>
<linearGradient id="SVGID_1_" gradientUnits="userSpaceOnUse" x1="121.986" y1="167.519" x2="377.296" y2="167.519">
	<stop  offset="0" style="stop-color:#FF449F"/>
	<stop  offset="1" style="stop-color:#D5085D"/>
</linearGradient>
<polygon class="st0" points="203.7,241.2 377.3,141 295.6,93.8 122,194.1 "/>
<linearGradient id="SVGID_2_" gradientUnits="userSpaceOnUse" x1="110" y1="153.085" x2="110" y2="453.878">
	<stop  offset="0" style="stop-color:#FF449F"/>
	<stop  offset="1" style="stop-color:#D5085D"/>
</linearGradient>
<polygon class="st1" points="197,253.3 23,153.1 23,353.6 197,453.9 "/>
<linearGradient id="SVGID_3_" gradientUnits="userSpaceOnUse" x1="351" y1="365.5" x2="370" y2="365.5">
	<stop  offset="0" style="stop-color:#FF449F"/>
	<stop  offset="1" style="stop-color:#D5085D"/>
</linearGradient>
<rect x="351" y="356" class="st2" width="19" height="19"/>
<linearGradient id="SVGID_4_" gradientUnits="userSpaceOnUse" x1="229.1812" y1="235.1628" x2="349.4807" y2="355.4622">
	<stop  offset="0" style="stop-color:#FF449F"/>
	<stop  offset="1" style="stop-color:#D5085D"/>
</linearGradient>
<path class="st3" d="M211,253.3v200.5l95-54.9V254.2c-0.1-16.6,13.3-30.1,29.9-30.2h24.9c2.9-10.6,12.5-17.9,23.4-18H384v-52.9
	L211,253.3z"/>
<linearGradient id="SVGID_5_" gradientUnits="userSpaceOnUse" x1="374" y1="230.5" x2="435" y2="230.5">
	<stop  offset="0" style="stop-color:#FF449F"/>
	<stop  offset="1" style="stop-color:#D5085D"/>
</linearGradient>
<path class="st4" d="M384.2,220h40.7c5.6,0,10.2,4.5,10.2,10.2v0.7c0,5.6-4.5,10.2-10.2,10.2h-40.7c-5.6,0-10.2-4.5-10.2-10.2v-0.7
	C374,224.5,378.5,220,384.2,220z"/>
<linearGradient id="SVGID_6_" gradientUnits="userSpaceOnUse" x1="30.013" y1="113.352" x2="281.628" y2="113.352">
	<stop  offset="0" style="stop-color:#FF449F"/>
	<stop  offset="1" style="stop-color:#D5085D"/>
</linearGradient>
<polygon class="st5" points="281.6,85.7 203.7,40.7 30,141 108,186 "/>
<linearGradient id="SVGID_7_" gradientUnits="userSpaceOnUse" x1="319.9992" y1="355.0014" x2="489" y2="355.0014">
	<stop  offset="0" style="stop-color:#FF449F"/>
	<stop  offset="1" style="stop-color:#D5085D"/>
</linearGradient>
<path class="st6" d="M472.9,238h-25.2c-3.1,10.2-12.5,17.1-23.1,17h-40.4c-10.6,0.1-20.1-6.8-23.1-17h-25.2
	c-8.8,0.1-16,7.3-15.9,16.2c0,0,0,0,0,0v202.1c-0.1,8.6,6.9,15.7,15.5,15.7c0.1,0,0.2,0,0.4,0h137c8.7,0.2,15.9-6.8,16.1-15.5
	c0-0.1,0-0.1,0-0.2V254.2C489,245.3,481.8,238.1,472.9,238z M337,285c0-3.9,3.1-7,6.9-7c0,0,0,0,0,0h33c3.9,0,7,3.1,7.1,7v4.7
	c0,3.9-3.2,7-7,7c-3,0.1-5.8-1.8-6.7-4.7H351v19h0.3c3.9,0,7,3.1,7,7s-3.1,7-7,7h-7.3c-3.8,0-6.9-3.1-6.9-7c0,0,0,0,0,0V285z
	 M337,349c0-3.9,3.1-7,7-7h33c3.9,0,7,3.1,7,7v33c0,3.9-3.1,7-7,7h-33c-3.9,0-7-3.1-7-7V349z M351.3,453h-7.3
	c-3.7,0.1-6.8-2.8-6.9-6.6c0-0.1,0-0.1,0-0.2v-33c0-3.9,3-7.1,6.9-7.3h33c3.9,0.1,7.1,3.3,7.1,7.3v6.7c-0.1,3.9-3.3,7-7.2,6.9
	c-3.8-0.1-6.8-3.1-6.9-6.9H351v19h0.3c3.9,0,7,3.1,7,7S355.1,453,351.3,453L351.3,453z M402.9,425.7l-25.5,25.5
	c-2.7,2.7-7.2,2.7-9.9,0c0,0,0,0,0,0L356.4,440c-2.7-2.7-2.7-7.2,0-9.9s7.2-2.7,9.9,0l6.2,6.2l20.5-20.5c2.7-2.7,7.2-2.7,9.9,0
	S405.7,423,402.9,425.7L402.9,425.7z M402.9,296.5l-25.5,25.5c-2.7,2.7-7.2,2.7-9.9,0c0,0,0,0,0,0l-11.2-11.2
	c-2.7-2.7-2.7-7.2,0-9.9s7.2-2.7,9.9,0l6.2,6.2l20.5-20.5c2.7-2.7,7.2-2.7,9.9,0S405.7,293.8,402.9,296.5L402.9,296.5z M464.9,437
	h-44c-3.9,0-7-3.1-7-7s3.1-7,7-7h44c3.9,0,7,3.1,7,7S468.7,437,464.9,437z M464.9,373h-44c-3.9,0-7-3.1-7-7s3.1-7,7-7h44
	c3.9,0,7,3.1,7,7S468.7,373,464.9,373z M464.9,309h-44c-3.9,0-7-3.1-7-7s3.1-7,7-7h44c3.9,0,7,3.1,7,7S468.7,309,464.9,309z"/>
</svg>
