<?xml version="1.0" encoding="utf-8"?>
<!-- Generator: Adobe Illustrator 21.0.0, SVG Export Plug-In . SVG Version: 6.00 Build 0)  -->
<svg version="1.1" id="Layer_1" xmlns="http://www.w3.org/2000/svg" xmlns:xlink="http://www.w3.org/1999/xlink" x="0px" y="0px"
	 viewBox="0 0 512 512" style="enable-background:new 0 0 512 512;" xml:space="preserve">
<style type="text/css">
	.st0{fill:url(#SVGID_1_);}
	.st1{fill:url(#SVGID_2_);}
</style>
<title>ionicons-v5-q</title>
<linearGradient id="SVGID_1_" gradientUnits="userSpaceOnUse" x1="208" y1="256" x2="304" y2="256">
	<stop  offset="0" style="stop-color:#FF449F"/>
	<stop  offset="1" style="stop-color:#D5085D"/>
</linearGradient>
<circle class="st0" cx="256" cy="256" r="48"/>
<linearGradient id="SVGID_2_" gradientUnits="userSpaceOnUse" x1="31.9982" y1="256" x2="480.0021" y2="256">
	<stop  offset="0" style="stop-color:#FF449F"/>
	<stop  offset="1" style="stop-color:#D5085D"/>
</linearGradient>
<path class="st1" d="M470.4,300l-0.5-0.4l-31.6-24.8c-4.1-3.2-6.3-8.2-6.1-13.3V250c-0.2-5.1,2.1-10,6.1-13.2l31.6-24.8l0.5-0.4
	c10-8.4,12.5-22.8,5.9-34.1l-42.7-73.9c0-0.1-0.1-0.1-0.1-0.2c-6.7-11.1-20.3-15.8-32.5-11.3l-0.4,0.1l-37.1,14.9
	c-4.8,1.9-10.1,1.4-14.5-1.3c-3.3-2.1-6.6-4-10-5.9c-4.5-2.4-7.5-6.8-8.2-11.8l-5.6-39.6l-0.1-0.7c-2.5-12.6-13.5-21.8-26.4-21.9
	h-85.5c-13.1,0-24.2,9.5-26.4,22.4l-0.1,0.6l-5.6,39.7c-0.7,5-3.7,9.4-8.1,11.8c-3.4,1.8-6.8,3.8-10,5.8c-4.3,2.7-9.7,3.2-14.4,1.3
	l-37.1-15l-0.3-0.1c-12.1-4.6-25.8,0.2-32.5,11.3l-0.1,0.2l-42.8,73.9c-6.7,11.3-4.2,25.7,5.9,34.1l0.5,0.4l31.6,24.8
	c4.1,3.2,6.3,8.2,6.1,13.3V262c0.2,5.1-2.1,10-6.1,13.2L42.1,300l-0.5,0.4c-10,8.4-12.5,22.8-5.9,34.1l42.7,73.9
	c0,0.1,0.1,0.1,0.1,0.2c6.7,11.1,20.3,15.8,32.5,11.3l0.3-0.1l37.1-14.9c4.8-1.9,10.1-1.4,14.5,1.3c3.3,2.1,6.6,4,10,5.9
	c4.5,2.4,7.5,6.8,8.2,11.8l5.6,39.6l0.1,0.7c2.5,12.7,13.6,21.8,26.5,21.9h85.5c13.1,0,24.2-9.5,26.5-22.4l0.1-0.6l5.6-39.7
	c0.7-5,3.7-9.4,8.2-11.8c3.4-1.8,6.8-3.8,10-5.8c4.3-2.7,9.7-3.2,14.4-1.3l37.1,15l0.4,0.1c12.1,4.6,25.8-0.2,32.5-11.3
	c0-0.1,0.1-0.1,0.1-0.2l42.7-73.9C483,322.8,480.5,308.4,470.4,300z M335.9,259.8c-2.1,44.1-39.5,78.2-83.7,76.2
	s-78.2-39.5-76.2-83.7C178,211,211,178,252.2,176.1c44.3-1.9,81.7,32.3,83.7,76.6C336,255,336,257.4,335.9,259.8z"/>
</svg>
